<?xml version="1.0" standalone="no"?>
<!DOCTYPE svg PUBLIC "-//W3C//DTD SVG 20010904//EN"
 "http://www.w3.org/TR/2001/REC-SVG-20010904/DTD/svg10.dtd">
<svg version="1.0" xmlns="http://www.w3.org/2000/svg"
 width="400.000000pt" height="400.000000pt" viewBox="0 0 400.000000 400.000000"
 preserveAspectRatio="xMidYMid meet">

<g transform="translate(0.000000,400.000000) scale(0.100000,-0.100000)"
fill="#000000" stroke="none">
<path d="M1820 3980 c-104 -15 -219 -39 -305 -65 l-81 -24 -23 -73 c-57 -178
-167 -334 -305 -432 -188 -134 -309 -176 -558 -195 -163 -12 -228 -46 -282
-146 -20 -38 -21 -52 -20 -315 3 -755 145 -1389 408 -1820 203 -332 501 -615
790 -751 169 -79 410 -139 559 -139 78 0 267 34 369 66 294 93 579 301 809
592 343 431 502 923 568 1762 17 207 14 501 -4 565 -37 126 -89 161 -273 182
-482 54 -761 249 -892 623 -13 36 -28 70 -34 77 -16 16 -133 49 -266 73 -130
24 -359 34 -460 20z m488 -58 c51 -11 121 -30 157 -42 l64 -21 22 -67 c45
-138 106 -240 204 -338 178 -180 371 -264 673 -294 153 -15 213 -47 255 -140
27 -58 33 -239 18 -545 -30 -619 -157 -1148 -361 -1504 -232 -405 -568 -710
-920 -836 -138 -49 -227 -66 -380 -72 -296 -11 -551 67 -799 245 -111 78 -306
263 -393 371 -273 339 -435 748 -517 1311 -34 231 -44 385 -45 695 -1 289 0
301 21 340 51 94 106 121 277 135 211 17 323 55 488 164 112 74 178 133 234
211 51 72 117 208 134 277 14 54 27 61 170 97 141 35 196 40 405 36 153 -2
222 -8 293 -23z"/>
<path d="M1765 3906 c-78 -13 -203 -44 -256 -65 -22 -8 -32 -24 -49 -78 -78
-237 -239 -408 -501 -532 -105 -50 -208 -77 -372 -96 -138 -16 -155 -22 -205
-68 -52 -50 -62 -102 -62 -323 0 -798 145 -1427 427 -1854 99 -149 176 -241
306 -366 137 -131 258 -220 392 -286 386 -189 814 -169 1195 58 211 126 429
344 592 594 275 420 418 1026 422 1780 1 281 0 297 -20 341 -37 80 -97 112
-234 124 -246 22 -441 98 -623 244 -111 89 -217 248 -263 393 -17 57 -18 58
-78 78 -140 46 -236 61 -416 65 -116 3 -202 0 -255 -9z m410 -206 c39 -6 105
-17 148 -27 l78 -16 68 -91 c199 -263 398 -388 745 -465 188 -42 178 -28 189
-294 10 -237 -3 -596 -28 -792 -33 -254 -101 -536 -180 -752 -125 -338 -378
-728 -576 -886 -183 -146 -385 -217 -623 -217 -176 0 -323 35 -470 110 -208
107 -388 300 -559 600 -201 352 -348 861 -387 1342 -17 206 -10 771 11 813 16
34 37 42 258 100 287 75 473 199 651 435 35 47 68 88 73 91 13 9 102 28 207
44 103 16 299 18 395 5z"/>
<path d="M1736 3624 c-149 -27 -177 -39 -214 -93 -46 -67 -154 -175 -243 -241
-140 -104 -332 -189 -509 -225 -116 -23 -137 -36 -151 -88 -18 -66 -15 -596 5
-797 21 -217 57 -429 105 -620 106 -429 334 -848 595 -1097 107 -103 194 -159
313 -202 138 -51 227 -64 387 -58 149 5 226 22 350 74 241 101 481 372 678
765 157 315 244 633 295 1088 23 205 26 816 4 868 -17 41 -45 55 -151 76 -301
61 -600 237 -746 442 l-45 62 -87 21 c-48 11 -118 25 -157 30 -99 15 -336 12
-429 -5z m387 -539 c155 -27 303 -123 396 -255 45 -65 100 -185 89 -196 -3 -2
-38 16 -78 40 -88 55 -209 99 -327 122 -110 20 -277 15 -340 -11 l-43 -17 0
-318 0 -319 46 -7 c86 -13 204 0 267 29 72 33 161 122 194 194 l25 53 31 -22
c55 -38 133 -108 156 -139 l23 -30 -42 -65 c-54 -81 -152 -174 -224 -209 l-55
-27 54 -49 c112 -103 175 -238 255 -545 18 -66 41 -138 53 -160 40 -70 107
-99 171 -74 33 12 33 5 -5 -56 -55 -88 -107 -130 -182 -148 -48 -11 -133 20
-184 67 -61 56 -86 110 -128 275 -48 194 -81 294 -124 381 -66 135 -172 225
-280 238 l-51 6 -2 -254 c-3 -248 -4 -254 -23 -251 -34 5 -178 79 -217 112
l-38 31 0 632 c0 669 -3 716 -47 776 -11 14 -35 36 -54 49 -19 13 -35 27 -37
31 -5 13 94 61 139 67 27 3 63 -1 93 -10 47 -14 51 -14 95 8 122 61 247 78
394 51z m172 -339 c111 -30 189 -64 275 -121 149 -95 301 -275 315 -369 10
-64 -16 -114 -75 -144 -81 -41 -144 -13 -211 93 -133 211 -420 341 -677 308
l-73 -9 3 125 3 126 45 12 c74 21 287 9 395 -21z m-785 -252 l0 -156 -44 -51
c-109 -129 -150 -235 -150 -387 0 -190 73 -335 232 -461 138 -110 261 -152
447 -153 66 -1 143 2 171 7 l51 7 17 -77 c9 -43 25 -103 36 -133 10 -30 15
-58 11 -62 -17 -18 -137 -32 -276 -32 -120 0 -167 4 -235 21 -295 74 -523 253
-646 508 -66 136 -87 225 -86 375 0 249 80 431 268 610 81 77 183 152 197 143
4 -2 7 -74 7 -159z m1316 -859 c34 -22 64 -74 64 -111 0 -46 -68 -143 -174
-249 l-90 -90 -14 35 c-8 19 -26 82 -41 140 l-28 105 45 65 c24 36 51 73 61
84 40 46 124 56 177 21z m-1176 -609 c39 -13 73 -26 76 -29 10 -10 -110 -96
-155 -112 -25 -8 -61 -15 -81 -15 -45 0 -145 49 -184 89 l-28 29 53 17 c35 12
66 32 93 60 l41 43 57 -29 c31 -16 89 -39 128 -53z"/>
</g>
</svg>
